<?xml version="1.0" standalone="no"?>
<!DOCTYPE svg PUBLIC "-//W3C//DTD SVG 20010904//EN"
 "http://www.w3.org/TR/2001/REC-SVG-20010904/DTD/svg10.dtd">
<svg version="1.0" xmlns="http://www.w3.org/2000/svg"
 width="600.000000pt" height="600.000000pt" viewBox="0 0 600.000000 600.000000"
 preserveAspectRatio="xMidYMid meet">
<metadata>
Created by potrace 1.11, written by Peter Selinger 2001-2013
</metadata>
<g transform="translate(0.000000,600.000000) scale(0.100000,-0.100000)"
fill="#000000" stroke="none">
<path d="M1310 5461 c-30 -4 11 -9 120 -13 176 -7 196 -11 306 -64 85 -41 146
-91 180 -149 34 -59 74 -91 44 -36 -7 14 -3 24 16 42 67 63 72 149 9 149 -12
0 -43 -16 -70 -34 -27 -19 -53 -32 -59 -29 -6 4 -24 17 -41 29 -47 34 -166 82
-245 99 -72 15 -176 17 -260 6z m700 -96 c17 -21 4 -68 -30 -100 -28 -27 -28
-27 -39 -6 -10 18 -9 21 8 21 24 0 35 15 27 36 -5 13 -9 13 -35 -1 -63 -32
-68 -13 -9 33 46 36 60 39 78 17z"/>
<path d="M1158 5433 c6 -2 18 -2 25 0 6 3 1 5 -13 5 -14 0 -19 -2 -12 -5z"/>
<path d="M779 5394 c-11 -32 -4 -58 27 -100 29 -38 29 -36 -1 -98 -25 -53 -60
-174 -52 -182 2 -3 13 26 23 63 34 129 80 190 202 273 79 53 85 62 22 30 -51
-26 -57 -25 -113 10 -60 38 -94 39 -108 4z m90 -8 c30 -16 57 -44 49 -51 -3
-3 -23 1 -46 9 -46 17 -54 13 -42 -20 7 -17 6 -22 -3 -18 -13 5 -37 50 -37 70
0 25 40 30 79 10z"/>
<path d="M1070 5410 c-8 -5 -10 -10 -5 -10 6 0 17 5 25 10 8 5 11 10 5 10 -5
0 -17 -5 -25 -10z"/>
<path d="M978 5265 c-51 -19 -87 -44 -99 -69 -9 -20 -9 -20 4 -3 19 23 112 57
157 57 47 0 130 -23 163 -45 15 -9 38 -41 53 -71 22 -44 26 -64 22 -107 -3
-28 -9 -60 -13 -71 -6 -14 -4 -17 10 -15 25 5 37 53 29 117 -12 99 -100 193
-194 206 -25 3 -56 8 -70 11 -14 2 -41 -2 -62 -10z"/>
<path d="M1660 5257 c-51 -19 -64 -28 -113 -74 -37 -35 -45 -51 -51 -90 -6
-48 2 -91 24 -132 20 -38 22 -17 4 47 l-17 61 28 56 c32 67 62 88 160 111 116
27 182 2 240 -90 31 -51 35 -91 20 -176 -5 -26 -4 -32 5 -24 6 6 14 40 19 75
5 46 9 57 14 39 3 -14 10 -45 16 -70 l10 -45 -3 55 c-4 61 -34 162 -45 155 -4
-2 -28 17 -53 44 -33 35 -58 51 -91 59 -59 15 -123 14 -167 -1z"/>
<path d="M1822 5090 c-27 -17 -32 -25 -32 -60 0 -30 5 -43 23 -54 70 -46 117
-24 117 54 0 26 -6 52 -12 57 -27 21 -64 22 -96 3z m56 -38 c3 -16 -2 -22 -17
-22 -26 0 -36 17 -20 36 16 19 33 13 37 -14z"/>
<path d="M915 5088 c-51 -28 -59 -76 -19 -113 37 -35 95 -35 118 0 47 72 -24
154 -99 113z m63 -44 c-4 -25 -34 -30 -42 -7 -5 11 -1 22 10 30 21 15 37 3 32
-23z"/>
<path d="M4997 4923 c-17 -17 -4 -25 31 -18 62 11 73 24 21 25 -25 0 -49 -3
-52 -7z"/>
<path d="M607 4773 c-4 -38 -7 -1106 -7 -2375 l0 -2308 2405 0 c2294 0 2405 1
2396 18 -15 28 -43 50 -96 74 l-50 23 -655 -1 c-360 0 -745 2 -855 6 -110 3
185 7 656 8 471 1 877 5 903 8 l46 7 0 2288 0 2289 -2308 0 -2309 0 -6 -107
c-4 -58 -8 -152 -9 -207 -1 -81 -3 -68 -8 64 -4 133 -9 172 -24 200 -20 37
-55 80 -66 80 -4 0 -10 -30 -13 -67z m1267 -34 c26 -12 43 -39 25 -39 -6 0 -3
-8 6 -17 13 -13 16 -27 11 -62 -8 -59 -23 -73 -86 -78 -44 -4 -55 -1 -71 18
-41 47 -33 154 13 177 30 14 71 15 102 1z m322 -11 c23 -23 29 -109 10 -149
-15 -32 -19 -34 -69 -36 -46 -2 -57 1 -77 22 -38 41 -31 152 12 173 29 15 106
9 124 -10z m300 0 c8 -7 18 -35 23 -61 7 -38 5 -54 -10 -85 -18 -35 -22 -37
-71 -40 -74 -3 -98 21 -98 100 0 50 4 63 26 85 22 22 32 25 71 20 25 -2 51
-11 59 -19z m298 0 c24 -22 30 -51 27 -124 -2 -37 -32 -59 -87 -62 -46 -3 -54
0 -74 25 -18 24 -21 37 -18 87 4 47 9 62 29 77 34 26 92 24 123 -3z m290 11
c27 -13 43 -39 23 -39 -9 0 -9 -2 -1 -8 21 -13 25 -76 6 -111 -16 -31 -22 -34
-71 -37 -66 -5 -87 10 -97 71 -15 103 53 163 140 124z m325 -13 c13 -14 13
-18 3 -25 -11 -7 -11 -9 2 -14 11 -4 16 -19 16 -44 -1 -42 -34 -121 -44 -105
-4 7 -26 9 -54 6 -42 -4 -49 -2 -66 22 -33 47 -24 152 16 172 31 16 106 8 127
-12z m281 11 c14 -7 25 -20 25 -29 0 -9 4 -20 8 -24 13 -13 7 -85 -9 -112 -13
-23 -23 -27 -67 -29 -74 -3 -97 20 -97 99 0 49 4 63 25 83 27 28 74 33 115 12z
m311 -7 c21 -17 22 -21 9 -30 -13 -8 -13 -10 1 -10 31 0 29 -103 -3 -132 -7
-7 -36 -14 -64 -16 -46 -3 -54 0 -73 24 -32 40 -30 126 4 159 31 32 92 34 126
5z m294 8 c14 -6 27 -21 30 -32 13 -68 12 -96 -3 -127 -16 -30 -22 -33 -72
-36 -67 -5 -89 12 -97 75 -14 101 56 160 142 120z m299 2 c31 -11 50 -74 41
-131 -8 -49 -24 -61 -86 -66 -43 -4 -53 -1 -69 19 -26 31 -34 77 -21 125 15
56 70 78 135 53z m325 -14 c14 -15 14 -18 1 -26 -13 -8 -12 -10 3 -10 14 0 17
-9 17 -46 0 -25 -7 -58 -16 -72 -13 -23 -23 -27 -68 -29 -44 -2 -56 1 -74 20
-21 23 -25 39 -23 100 1 26 9 46 27 64 22 22 32 25 71 20 25 -2 52 -12 62 -21z
m289 8 c13 -9 21 -22 18 -29 -3 -8 0 -15 5 -17 5 -2 10 -24 11 -50 1 -67 -22
-92 -88 -96 -46 -3 -54 0 -73 24 -32 40 -30 126 4 159 29 30 88 34 123 9z
m-3623 -328 c11 -8 16 -20 12 -29 -3 -9 -1 -17 4 -19 6 -2 11 -24 11 -50 1
-67 -23 -93 -87 -93 -44 0 -53 4 -72 29 -36 46 -25 159 15 169 37 10 99 6 117
-7z m303 -2 c17 -12 20 -19 12 -29 -8 -9 -6 -14 6 -19 14 -5 15 -15 10 -53 -3
-26 -13 -54 -21 -63 -8 -9 -13 -19 -11 -21 2 -2 -22 -4 -53 -4 -76 0 -96 23
-96 109 1 49 5 61 24 77 29 24 98 25 129 3z m300 8 c31 -20 41 -116 17 -165
-14 -31 -17 -32 -71 -31 -40 1 -61 7 -75 20 -35 36 -29 151 9 173 20 12 102
14 120 3z m298 0 c38 -25 48 -124 18 -169 -17 -24 -25 -28 -69 -28 -69 0 -95
27 -95 96 0 50 13 87 34 101 6 4 31 8 56 8 25 0 50 -4 56 -8z m319 -3 c11 -2
12 -4 15 -91 4 -79 -17 -103 -85 -103 -42 0 -54 4 -72 26 -36 42 -29 143 11
172 9 6 93 4 131 -4z m295 -9 c30 -30 32 -127 3 -163 -25 -30 -110 -32 -135
-2 -37 44 -30 168 10 178 46 12 103 6 122 -13z m298 4 c17 -12 20 -19 12 -29
-8 -9 -6 -14 6 -19 14 -5 16 -15 11 -55 -9 -76 -19 -86 -85 -86 -64 0 -86 16
-96 70 -7 41 9 107 30 122 25 18 95 16 122 -3z m306 0 c19 -19 20 -31 4 -37
-8 -4 -7 -6 3 -6 25 -1 29 -65 7 -110 -17 -35 -19 -36 -75 -35 -79 2 -97 24
-91 113 3 47 9 67 23 77 26 19 110 18 129 -2z m297 6 c22 -12 25 -36 7 -43 -8
-4 -7 -6 3 -6 25 -1 29 -65 7 -110 -17 -35 -20 -36 -70 -36 -72 0 -98 26 -98
96 0 50 13 87 34 101 16 11 95 10 117 -2z m309 -10 c30 -30 31 -128 2 -164
-13 -16 -28 -21 -67 -21 -44 0 -53 4 -73 30 -32 40 -27 128 8 157 31 25 104
24 130 -2z m307 9 c7 -1 11 -5 11 -8 -1 -3 2 -27 6 -53 8 -48 -7 -118 -25
-118 -6 0 -8 -3 -6 -7 3 -5 -20 -8 -51 -8 -64 0 -86 16 -97 72 -8 42 10 109
33 123 14 8 75 8 129 -1z m290 3 c33 -21 44 -111 20 -162 -17 -34 -18 -35 -74
-34 -48 2 -61 6 -75 25 -19 27 -21 36 -19 97 1 58 27 82 89 82 26 0 52 -4 59
-8z m308 -6 c11 -8 16 -20 12 -29 -3 -9 -2 -17 4 -19 17 -6 13 -85 -7 -115
-17 -24 -25 -28 -69 -28 -69 0 -95 27 -95 96 0 50 13 87 34 101 19 13 101 9
121 -6z m-4498 -108 c-2 -18 -4 -4 -4 32 0 36 2 50 4 33 2 -18 2 -48 0 -65z
m0 -115 c-3 -10 -5 -2 -5 17 0 19 2 27 5 18 2 -10 2 -26 0 -35z m0 -55 c-3 -7
-5 -2 -5 12 0 14 2 19 5 13 2 -7 2 -19 0 -25z m0 -65 c-3 -10 -5 -2 -5 17 0
19 2 27 5 18 2 -10 2 -26 0 -35z m549 22 c27 -11 35 -19 30 -32 -4 -9 -2 -19
4 -23 18 -11 15 -86 -6 -117 -17 -24 -25 -28 -69 -28 -67 0 -95 31 -94 101 1
62 9 83 40 100 31 17 52 17 95 -1z m321 -7 c8 -6 11 -18 8 -26 -3 -9 -1 -18 5
-22 18 -11 16 -85 -3 -113 -14 -22 -26 -26 -69 -29 -49 -3 -55 0 -75 26 -39
51 -27 151 21 175 24 12 93 6 113 -11z m272 12 c38 -11 56 -31 38 -42 -9 -5
-7 -11 7 -21 16 -12 18 -21 12 -58 -10 -63 -29 -79 -91 -79 -37 0 -56 5 -68
18 -38 42 -28 159 15 180 29 14 45 14 87 2z m303 0 c27 -8 39 -18 47 -42 15
-44 13 -87 -7 -128 l-17 -35 -60 5 c-56 5 -61 7 -77 39 -28 57 -10 143 35 161
29 12 36 12 79 0z m312 -4 c24 -10 36 -23 40 -43 13 -56 9 -101 -10 -130 -17
-24 -25 -28 -69 -28 -68 0 -95 30 -95 107 0 56 10 77 45 96 27 15 49 15 89 -2z
m299 3 c35 -9 38 -13 33 -37 -5 -18 -4 -22 3 -13 19 29 19 -72 0 -114 -18 -39
-19 -40 -71 -40 -47 0 -56 3 -75 29 -39 51 -27 151 21 174 28 14 43 14 89 1z
m300 0 c35 -9 38 -13 33 -36 -5 -16 -3 -22 4 -18 10 6 14 -15 12 -74 -2 -50
-25 -70 -86 -73 -42 -2 -54 1 -68 18 -40 49 -31 160 15 182 29 14 44 14 90 1z
m296 1 c40 -11 54 -29 39 -47 -8 -10 -6 -13 6 -13 22 0 21 -63 -2 -110 -17
-35 -18 -35 -75 -32 -47 2 -60 7 -72 26 -36 54 -22 158 24 175 35 13 40 13 80
1z m303 0 c44 -13 54 -25 38 -45 -10 -12 -9 -15 3 -15 10 0 17 -11 19 -32 3
-35 -11 -88 -24 -88 -4 0 -8 -6 -8 -12 0 -9 -17 -13 -52 -13 -74 0 -98 26 -98
105 0 58 10 79 45 98 25 14 31 14 77 2z m338 -16 c13 -12 13 -16 1 -23 -11 -7
-11 -10 1 -17 25 -15 29 -65 8 -109 -19 -39 -20 -40 -72 -40 -47 0 -56 3 -75
29 -24 31 -30 99 -14 140 17 44 113 58 151 20z m273 15 c35 -9 38 -13 33 -37
-5 -20 -4 -23 4 -12 7 11 10 6 11 -25 5 -101 -10 -123 -85 -127 -43 -3 -54 1
-69 20 -40 48 -30 158 16 180 29 14 44 14 90 1z m299 1 c32 -9 39 -16 49 -53
13 -49 6 -102 -17 -128 -23 -26 -114 -27 -137 -1 -41 46 -28 163 21 180 36 14
41 14 84 2z m301 -1 c41 -11 53 -31 58 -90 2 -40 -9 -89 -22 -89 -5 0 -9 -6
-9 -13 0 -10 -15 -11 -61 -7 -75 7 -89 23 -89 98 0 61 12 89 43 102 29 12 36
12 80 -1z m312 -3 c38 -16 42 -25 23 -45 -11 -11 -10 -13 3 -8 26 9 31 -58 8
-108 -18 -39 -19 -40 -71 -40 -70 0 -98 29 -97 101 1 62 9 83 40 100 31 17 52
17 94 0z m-4206 -340 c13 -14 13 -18 3 -25 -11 -7 -11 -9 2 -14 23 -9 21 -78
-3 -123 -11 -20 -22 -30 -26 -25 -3 6 -25 9 -50 7 -36 -4 -47 0 -65 19 -36 38
-27 153 13 174 30 15 105 7 126 -13z m292 4 c21 -17 22 -21 9 -30 -13 -8 -13
-10 1 -10 25 0 29 -64 7 -109 -17 -35 -19 -36 -74 -36 -73 0 -94 23 -94 102 0
44 5 58 25 78 31 32 92 34 126 5z m294 8 c18 -8 25 -18 22 -30 -3 -10 -2 -18
3 -18 12 0 18 -72 8 -98 -13 -38 -30 -47 -86 -47 -45 0 -57 4 -74 25 -29 35
-22 135 11 161 26 22 78 25 116 7z m299 1 c26 -12 43 -39 25 -39 -6 0 -3 -8 6
-17 13 -13 16 -27 11 -62 -8 -60 -24 -74 -88 -76 -61 -3 -83 14 -94 72 -18 97
55 160 140 122z m322 -11 c23 -23 29 -109 10 -149 -16 -33 -18 -35 -71 -34
-70 0 -97 24 -98 86 -1 62 9 94 35 107 29 15 106 9 124 -10z m293 5 c33 -28
43 -104 20 -151 -18 -36 -20 -37 -75 -37 -73 0 -94 23 -94 102 0 44 5 58 25
78 30 30 92 34 124 8z m295 5 c28 -12 34 -25 36 -78 5 -95 -11 -115 -88 -115
-45 0 -57 4 -74 25 -29 35 -22 135 11 161 26 21 78 25 115 7z m300 1 c27 -13
43 -39 23 -39 -8 0 -9 -3 -1 -8 20 -13 24 -78 6 -113 -16 -30 -21 -32 -71 -34
-66 -3 -88 13 -97 71 -15 102 53 162 140 123z m325 -13 c13 -14 13 -18 3 -25
-11 -7 -11 -9 2 -14 21 -8 21 -68 1 -110 -14 -30 -18 -32 -73 -33 -50 -1 -60
2 -76 24 -34 44 -24 150 16 170 31 16 106 8 127 -12z m292 4 c19 -15 21 -21
11 -28 -11 -8 -11 -10 2 -15 22 -9 21 -85 -2 -117 -14 -20 -27 -26 -66 -28
-72 -3 -96 22 -96 100 0 49 4 63 25 83 31 32 92 34 126 5z m294 8 c27 -12 33
-33 13 -41 -8 -3 -6 -6 5 -6 28 -1 27 -91 -2 -126 -25 -31 -116 -29 -142 4
-30 36 -27 124 6 156 27 28 76 33 120 13z m300 0 c14 -6 27 -21 30 -32 24
-119 4 -160 -79 -162 -61 -1 -85 18 -93 74 -14 101 56 160 142 120z m299 2
c45 -17 60 -148 20 -181 -8 -7 -38 -13 -66 -14 -42 -2 -55 2 -70 19 -39 47
-30 152 14 174 29 14 70 15 102 2z m325 -14 c14 -15 14 -18 1 -26 -13 -8 -12
-10 3 -10 24 0 24 -85 -1 -120 -14 -21 -25 -25 -68 -25 -74 0 -94 21 -94 97 0
50 4 63 26 85 22 22 32 25 71 20 25 -2 52 -12 62 -21z m292 4 c21 -17 22 -21
9 -30 -13 -8 -13 -10 3 -10 28 0 27 -90 -2 -125 -25 -31 -116 -29 -142 4 -30
36 -27 124 6 156 31 32 92 34 126 5z m-4227 -326 c19 -19 20 -31 4 -37 -8 -4
-7 -6 3 -6 25 -1 29 -62 7 -108 -18 -38 -18 -38 -74 -37 -82 2 -98 22 -95 122
1 59 27 82 90 82 32 0 55 -6 65 -16z m297 6 c22 -12 25 -36 7 -43 -8 -4 -7 -6
3 -6 25 -1 29 -65 7 -110 -17 -35 -20 -36 -70 -36 -72 0 -98 26 -98 96 0 50
13 87 34 101 16 11 95 10 117 -2z m304 -4 c11 -8 16 -20 12 -29 -3 -9 -1 -17
4 -19 6 -2 11 -24 11 -50 1 -67 -23 -93 -87 -93 -44 0 -53 4 -72 29 -34 44
-27 144 10 168 20 13 102 9 122 -6z m300 0 c11 -7 16 -20 12 -29 -3 -9 1 -18
10 -21 12 -5 14 -16 9 -53 -8 -64 -27 -81 -90 -85 -69 -4 -91 21 -91 105 1 50
5 62 24 78 28 23 98 25 126 5z m2425 -6 c30 -30 31 -128 2 -164 -13 -16 -28
-21 -67 -21 -44 0 -53 4 -73 30 -20 25 -23 39 -19 82 5 71 26 93 89 93 35 0
54 -6 68 -20z m295 10 c4 -6 11 -8 16 -4 5 3 9 2 8 -3 -2 -4 1 -29 5 -55 10
-60 -7 -116 -37 -122 -75 -15 -102 -13 -119 9 -36 48 -30 151 10 175 22 13
109 13 117 0z m309 -6 c19 -19 20 -31 4 -37 -8 -4 -7 -6 3 -6 25 -1 29 -62 7
-108 -18 -38 -18 -38 -75 -37 -48 2 -61 6 -75 25 -19 27 -21 36 -19 97 1 59
27 82 90 82 32 0 55 -6 65 -16z m301 2 c16 -12 17 -16 6 -30 -11 -13 -11 -16
2 -16 23 0 27 -66 5 -109 -17 -35 -20 -36 -70 -36 -72 0 -98 26 -98 96 0 50
13 87 34 101 19 13 101 9 121 -6z m-2694 -207 c19 -20 29 -42 29 -63 0 -17 5
-49 10 -71 6 -25 6 -41 0 -43 -6 -2 -10 -13 -10 -23 0 -25 -18 -61 -36 -72 -7
-4 -10 -15 -7 -25 5 -14 3 -15 -8 -4 -16 14 -139 17 -139 2 0 -5 -4 -10 -10
-10 -5 0 -7 6 -4 14 3 7 -2 16 -10 19 -31 12 -49 69 -47 146 2 82 20 133 54
149 12 6 51 11 85 11 59 1 66 -1 93 -30z m282 20 c31 -14 47 -50 54 -119 3
-30 10 -61 16 -67 6 -9 6 -13 -1 -13 -5 0 -13 -15 -16 -34 -4 -18 -15 -41 -26
-51 -10 -9 -16 -23 -13 -31 3 -8 0 -14 -6 -14 -6 0 -11 5 -11 10 0 6 -28 10
-65 10 -37 0 -65 -4 -65 -10 0 -17 -17 -11 -23 8 -4 9 -15 28 -26 42 -27 33
-37 136 -21 197 18 62 49 83 121 83 32 0 69 -5 82 -11z m314 -4 c12 -8 28 -34
37 -57 18 -52 27 -136 15 -144 -5 -3 -9 -16 -9 -30 0 -13 -10 -34 -22 -46 -13
-13 -22 -30 -21 -38 2 -9 0 -10 -3 -2 -7 15 -144 17 -144 2 0 -5 -5 -10 -11
-10 -5 0 -7 5 -4 11 4 6 -3 20 -15 31 -32 30 -43 66 -41 133 3 125 36 165 135
165 39 0 70 -6 83 -15z m296 4 c37 -17 57 -60 57 -122 0 -35 5 -58 13 -61 10
-5 10 -7 0 -12 -7 -3 -13 -16 -13 -29 0 -13 -11 -36 -24 -52 -12 -15 -21 -35
-18 -43 4 -12 2 -13 -9 -2 -16 14 -139 17 -139 2 0 -5 -5 -10 -11 -10 -6 0 -9
5 -7 12 3 7 -6 21 -19 33 -29 24 -43 81 -38 155 4 68 21 107 54 125 31 17 121
19 154 4z m320 -10 c62 -48 65 -241 4 -284 -13 -9 -44 -15 -82 -15 -34 0 -66
-5 -73 -12 -9 -9 -12 -9 -12 3 0 9 -10 24 -21 35 -32 28 -42 62 -40 131 2 72
21 125 53 147 35 24 138 21 171 -5z m-2768 -123 c33 -14 48 -36 25 -36 -5 0
-10 -4 -10 -10 0 -5 6 -9 13 -7 20 4 21 -72 1 -112 -17 -35 -18 -36 -70 -33
-73 5 -94 27 -94 98 0 63 12 91 43 104 32 13 53 12 92 -4z m300 0 c34 -15 47
-36 23 -36 -8 -1 -6 -6 5 -14 23 -18 25 -84 3 -122 -16 -27 -21 -29 -69 -26
-73 5 -97 29 -96 96 1 64 9 85 40 102 31 17 52 17 94 0z m325 -12 c13 -12 13
-16 1 -23 -11 -7 -10 -10 3 -18 23 -13 25 -83 3 -116 -14 -22 -26 -26 -69 -29
-49 -3 -55 0 -75 26 -39 51 -27 151 21 175 27 13 96 5 116 -15z m278 15 c29
-10 52 -39 32 -39 -6 0 -10 -5 -10 -11 0 -5 4 -8 9 -4 15 8 24 -33 16 -73 -10
-57 -30 -72 -90 -72 -37 0 -56 5 -68 18 -38 42 -28 159 15 180 30 14 58 14 96
1z m2414 1 c40 -12 49 -32 50 -115 1 -62 -20 -83 -86 -87 -43 -3 -54 1 -69 20
-40 48 -30 158 16 180 29 14 44 14 89 2z m306 -1 c25 -9 34 -19 43 -52 13 -49
6 -103 -17 -128 -23 -26 -114 -27 -137 -1 -41 46 -28 163 21 180 36 14 53 14
90 1z m307 -3 c33 -14 48 -36 25 -36 -5 0 -10 -4 -10 -10 0 -5 7 -7 15 -4 22
9 20 -77 -2 -119 -17 -31 -20 -32 -72 -29 -72 4 -91 25 -91 99 0 62 12 90 43
103 32 13 53 12 92 -4z m300 0 c33 -14 48 -36 24 -36 -5 0 -7 -5 -4 -10 4 -6
10 -8 15 -5 17 11 16 -78 -2 -114 -17 -35 -20 -36 -70 -36 -70 0 -98 29 -97
101 1 62 9 83 40 100 31 17 52 17 94 0z m-1460 -186 c3 -5 1 -10 -4 -10 -6 0
-11 5 -11 10 0 6 2 10 4 10 3 0 8 -4 11 -10z m-1236 -65 c16 -8 32 -22 36 -32
13 -32 33 -158 25 -163 -4 -3 -10 -22 -14 -43 -4 -21 -14 -41 -22 -44 -7 -3
-14 -15 -14 -26 0 -16 -3 -18 -12 -9 -15 15 -138 16 -138 2 0 -5 -5 -10 -11
-10 -5 0 -8 4 -4 9 3 5 -6 21 -19 34 -34 34 -44 80 -36 166 7 67 11 78 39 103
26 24 40 28 87 28 30 0 68 -7 83 -15z m304 4 c31 -14 47 -50 54 -119 3 -30 10
-61 16 -67 6 -9 6 -13 -1 -13 -5 0 -13 -15 -16 -34 -4 -18 -15 -41 -26 -51
-10 -9 -16 -23 -13 -31 3 -8 0 -14 -6 -14 -6 0 -11 5 -11 10 0 6 -28 10 -65
10 -37 0 -65 -4 -65 -10 0 -5 -4 -10 -10 -10 -5 0 -10 5 -10 12 0 7 -11 23
-24 37 -19 20 -27 41 -32 93 -9 91 8 154 50 179 35 21 120 26 159 8z m302 1
c17 -6 33 -25 44 -52 20 -46 33 -148 20 -148 -5 0 -9 -13 -9 -29 0 -15 -9 -40
-20 -54 -11 -14 -20 -31 -21 -39 0 -10 -2 -10 -6 0 -6 15 -143 17 -143 2 0 -5
-4 -10 -10 -10 -5 0 -7 7 -4 15 4 9 -1 18 -10 21 -31 12 -49 65 -48 134 4 126
37 170 128 170 29 0 64 -4 79 -10z m308 -1 c36 -16 57 -60 57 -121 0 -30 5
-59 12 -66 9 -9 9 -12 0 -12 -7 0 -12 -11 -12 -24 0 -14 -11 -37 -24 -53 -12
-15 -21 -34 -19 -40 3 -7 0 -13 -6 -13 -6 0 -11 5 -11 10 0 6 -28 10 -65 10
-37 0 -65 -4 -65 -10 0 -17 -17 -11 -23 8 -4 9 -16 30 -29 45 -19 23 -23 40
-23 105 0 89 16 137 54 157 31 17 120 19 154 4z m306 1 c32 -16 52 -59 60
-127 8 -69 -5 -131 -36 -165 -8 -9 -12 -22 -8 -27 3 -6 1 -11 -4 -11 -6 0 -11
5 -11 10 0 14 -123 13 -138 -2 -9 -9 -12 -9 -12 2 0 8 -11 25 -24 39 -34 38
-44 77 -36 153 8 73 28 114 63 128 30 12 124 12 146 0z m-2738 -90 c19 -15 21
-21 11 -28 -11 -8 -11 -10 2 -15 22 -9 20 -72 -4 -122 -11 -22 -19 -34 -20
-27 0 9 -13 11 -47 8 -67 -6 -93 19 -93 88 0 69 8 92 33 104 36 18 93 14 118
-8z m300 0 c21 -17 22 -21 9 -30 -13 -8 -13 -10 1 -10 25 0 29 -64 7 -109 -17
-35 -19 -36 -74 -36 -73 0 -94 23 -94 102 0 44 5 58 25 78 31 32 92 34 126 5z
m294 8 c18 -8 25 -18 22 -30 -3 -10 -2 -18 3 -18 12 0 18 -72 8 -98 -13 -38
-30 -47 -85 -47 -73 0 -88 17 -88 101 0 57 3 68 24 85 26 22 78 25 116 7z
m322 -14 c8 -12 10 -20 3 -22 -6 -2 -4 -10 5 -19 20 -19 19 -60 -3 -102 -16
-32 -21 -34 -69 -36 -42 -2 -56 2 -72 19 -39 42 -39 128 1 168 17 17 29 19 71
15 34 -3 55 -11 64 -23z m2415 8 c16 -16 27 -112 17 -140 -14 -37 -31 -47 -83
-48 -61 -2 -85 18 -93 74 -7 52 2 87 28 113 18 18 30 20 71 17 27 -3 54 -10
60 -16z m288 8 c41 -22 51 -150 14 -181 -8 -6 -38 -13 -66 -14 -42 -2 -55 2
-70 19 -39 47 -30 152 14 174 29 14 84 15 108 2z m311 -10 c21 -17 22 -21 9
-30 -13 -8 -13 -10 3 -10 24 0 24 -85 -1 -120 -14 -21 -25 -25 -68 -25 -74 0
-94 21 -94 97 0 49 4 63 25 83 31 32 92 34 126 5z m300 0 c21 -17 22 -21 9
-30 -13 -8 -13 -10 3 -10 28 0 27 -90 -2 -125 -25 -31 -116 -29 -142 4 -30 36
-27 124 6 156 31 32 92 34 126 5z m-2712 -295 c34 -17 40 -30 55 -114 13 -78
36 -95 36 -27 0 63 26 123 61 141 33 18 118 20 152 4 14 -6 30 -22 36 -36 14
-31 14 -33 -4 -33 -8 0 -15 -5 -15 -10 0 -6 8 -10 18 -8 14 2 18 -6 20 -42 2
-24 8 -50 14 -57 7 -9 7 -13 0 -13 -5 0 -13 -15 -16 -34 -4 -18 -15 -41 -26
-51 -10 -9 -16 -23 -13 -31 3 -8 0 -14 -6 -14 -6 0 -11 4 -11 10 0 5 -28 9
-65 8 -36 -1 -65 -6 -65 -10 0 -4 -4 -8 -10 -8 -5 0 -10 6 -10 13 0 8 -11 24
-25 37 -15 14 -25 35 -25 52 0 23 -4 28 -25 28 -21 0 -25 -5 -25 -30 0 -18 -9
-39 -22 -52 -13 -13 -21 -29 -20 -37 3 -12 1 -12 -10 -3 -15 12 -138 13 -138
0 0 -4 -5 -8 -11 -8 -5 0 -7 5 -4 10 4 6 -4 19 -18 30 -33 26 -45 80 -37 169
7 67 11 78 39 103 26 24 40 28 87 28 30 0 68 -7 83 -15z m610 1 c33 -18 51
-54 58 -121 3 -27 10 -56 16 -62 7 -9 5 -13 -7 -13 -11 0 -16 -9 -16 -29 0
-15 -9 -40 -21 -55 -11 -14 -17 -30 -14 -36 3 -5 1 -10 -4 -10 -6 0 -11 4 -11
10 0 6 -29 9 -70 8 -38 -1 -70 -6 -70 -10 0 -4 -5 -8 -11 -8 -5 0 -8 4 -4 9 3
5 -6 21 -19 34 -34 34 -44 80 -36 159 8 73 28 114 63 128 34 14 115 11 146 -4z
m305 3 c33 -16 56 -66 56 -126 0 -27 5 -54 12 -61 9 -9 9 -12 0 -12 -7 0 -12
-11 -12 -24 0 -14 -11 -37 -24 -53 -12 -15 -21 -34 -19 -40 3 -7 0 -13 -6 -13
-6 0 -11 4 -11 10 0 5 -28 9 -65 8 -36 -1 -65 -6 -65 -10 0 -15 -18 -8 -23 10
-4 9 -16 30 -29 45 -19 23 -23 40 -23 105 0 89 16 137 54 157 32 17 121 19
155 4z m299 2 c36 -14 57 -55 66 -129 9 -71 -4 -129 -35 -163 -9 -10 -13 -23
-9 -28 3 -6 1 -11 -4 -11 -6 0 -11 5 -11 10 0 13 -120 10 -137 -3 -9 -7 -13
-5 -13 7 0 9 -6 19 -14 22 -27 11 -50 76 -48 139 3 83 18 123 56 146 33 20
108 25 149 10z m-2727 -38 c11 -11 13 -18 5 -21 -16 -5 -14 -22 3 -22 22 0 24
-64 4 -107 l-18 -38 -62 5 c-59 5 -64 7 -79 37 -20 41 -11 130 16 149 27 20
110 18 131 -3z m299 3 c16 -12 17 -16 6 -30 -11 -13 -11 -16 2 -16 23 0 27
-66 5 -109 -17 -35 -20 -36 -70 -36 -72 0 -98 26 -98 96 0 50 13 87 34 101 19
13 101 9 121 -6z m296 3 c13 -7 18 -16 14 -26 -3 -9 -1 -19 5 -23 19 -12 14
-96 -6 -122 -15 -18 -29 -23 -69 -23 -44 0 -53 4 -72 29 -35 46 -29 142 11
168 17 11 95 9 117 -3z m309 -4 c6 -8 9 -19 5 -25 -4 -6 1 -17 11 -24 13 -10
16 -22 11 -55 -8 -62 -29 -81 -92 -81 -71 0 -90 21 -90 102 1 51 4 63 24 79
29 23 113 26 131 4z m2420 -5 c30 -30 31 -128 2 -164 -13 -16 -28 -21 -67 -21
-44 0 -53 4 -73 30 -20 25 -23 39 -19 82 5 71 26 93 89 93 35 0 54 -6 68 -20z
m303 3 c25 -29 35 -103 18 -138 -19 -41 -16 -39 -79 -45 -49 -4 -59 -2 -74 16
-36 45 -30 150 10 174 29 16 107 12 125 -7z m298 7 c10 -6 19 -18 19 -26 0 -8
-4 -12 -10 -9 -5 3 -10 1 -10 -4 0 -6 6 -11 14 -11 22 0 24 -64 4 -107 -18
-38 -18 -38 -75 -37 -48 2 -61 6 -75 25 -19 27 -21 36 -19 97 1 58 27 82 87
82 25 0 54 -5 65 -10z m304 -4 c16 -12 17 -16 6 -30 -11 -13 -11 -16 2 -16 23
0 27 -66 5 -109 -17 -35 -20 -36 -70 -36 -72 0 -98 26 -98 96 0 50 13 87 34
101 19 13 101 9 121 -6z m-4250 -320 c34 -15 47 -36 23 -36 -7 0 -5 -5 5 -11
11 -7 17 -22 17 -50 0 -40 -32 -114 -44 -102 -4 4 -25 6 -47 4 -61 -4 -89 26
-89 96 0 62 12 90 43 103 32 13 53 12 92 -4z m324 -11 c13 -13 14 -17 2 -24
-11 -7 -11 -10 2 -17 26 -15 23 -124 -4 -124 -5 0 -9 -8 -9 -17 0 -12 -3 -14
-10 -7 -6 6 -29 8 -53 5 -37 -5 -45 -3 -64 20 -17 20 -23 39 -22 75 1 62 9 83
40 100 30 18 96 12 118 -11z m300 0 c13 -13 14 -17 2 -24 -11 -7 -11 -10 1
-17 26 -16 29 -65 6 -113 -12 -25 -23 -40 -25 -35 -2 6 -23 8 -51 4 -43 -5
-49 -3 -69 24 -39 51 -27 151 21 175 28 14 95 7 115 -14z m279 14 c29 -10 52
-39 31 -39 -6 0 -3 -8 6 -17 21 -20 14 -96 -10 -123 -8 -9 -12 -20 -8 -25 5
-4 1 -4 -7 0 -8 5 -34 8 -58 6 -55 -3 -79 17 -88 74 -15 103 42 156 134 124z
m2420 0 c36 -12 42 -26 44 -103 2 -72 -15 -91 -79 -95 -26 -1 -49 -4 -52 -6
-9 -10 -43 49 -48 84 -13 99 45 151 135 120z m300 0 c25 -9 34 -19 43 -52 13
-48 6 -102 -16 -127 -8 -9 -12 -21 -8 -26 4 -5 2 -4 -5 1 -7 6 -32 9 -59 5
-40 -4 -51 -2 -65 15 -42 52 -30 165 20 183 36 14 53 14 90 1z m307 -3 c34
-15 47 -36 23 -36 -7 0 -5 -5 5 -11 11 -7 17 -22 17 -50 0 -40 -32 -114 -44
-102 -4 4 -25 6 -47 4 -61 -4 -89 26 -89 96 0 62 12 90 43 103 32 13 53 12 92
-4z m324 -11 c14 -14 14 -17 1 -25 -14 -9 -13 -11 8 -10 4 1 9 -16 12 -37 6
-40 -6 -93 -21 -93 -5 0 -9 -8 -9 -17 0 -12 -3 -14 -10 -7 -6 6 -29 8 -53 5
-37 -5 -45 -3 -64 20 -40 47 -27 159 19 179 31 13 97 5 117 -15z m-2720 -20
c16 -8 32 -22 36 -32 14 -34 32 -158 24 -161 -5 -2 -9 -17 -9 -33 0 -17 -9
-38 -22 -51 -13 -13 -21 -29 -20 -36 2 -9 -1 -11 -9 -6 -17 10 -139 12 -139 2
0 -4 -5 -8 -11 -8 -5 0 -7 4 -4 10 3 5 -6 20 -20 32 -34 30 -43 75 -35 167 7
67 11 78 39 103 26 24 40 28 87 28 30 0 68 -7 83 -15z m314 -5 c28 -23 47 -74
47 -130 0 -20 5 -41 12 -48 8 -8 8 -12 1 -12 -6 0 -14 -15 -17 -34 -4 -18 -15
-41 -26 -51 -10 -9 -16 -23 -13 -31 3 -8 0 -14 -6 -14 -6 0 -11 4 -11 8 0 4
-29 8 -65 7 -36 0 -65 -3 -65 -7 0 -5 -4 -8 -10 -8 -5 0 -10 6 -10 13 0 8 -11
24 -25 37 -15 14 -25 35 -25 52 0 15 -5 28 -11 28 -5 0 -7 5 -3 12 5 7 7 29 5
48 -3 50 26 118 58 135 41 22 133 19 164 -5z m296 5 c16 -8 34 -27 40 -43 18
-42 31 -145 20 -157 -5 -5 -9 -20 -9 -32 0 -13 -10 -34 -23 -47 -13 -13 -21
-29 -19 -37 2 -9 0 -10 -5 -4 -9 12 -128 13 -139 2 -11 -10 -26 -8 -19 2 3 5
-6 21 -19 34 -34 34 -44 80 -36 159 8 73 28 114 63 128 35 14 115 11 146 -5z
m303 4 c35 -16 58 -64 58 -123 0 -29 5 -57 12 -64 9 -9 9 -12 0 -12 -7 0 -12
-9 -12 -21 0 -25 -18 -61 -36 -72 -7 -4 -11 -14 -8 -22 4 -8 1 -15 -5 -15 -6
0 -11 4 -11 8 0 4 -29 8 -65 7 -36 0 -65 -3 -65 -7 0 -5 -5 -8 -11 -8 -6 0 -9
5 -7 11 2 7 -9 24 -24 40 -15 15 -29 38 -29 51 -1 13 -3 34 -5 48 -2 14 -1 47
3 75 4 38 13 57 38 82 29 29 39 33 89 33 30 0 65 -5 78 -11z m301 2 c36 -14
57 -55 66 -129 6 -50 4 -78 -7 -110 -19 -56 -51 -77 -122 -78 -30 0 -61 -3
-68 -8 -7 -4 -12 -2 -12 7 0 8 -7 17 -14 20 -29 11 -49 68 -47 138 2 81 21
133 59 153 30 17 108 21 145 7z m-2732 -311 c21 -17 22 -21 9 -30 -13 -8 -13
-10 1 -10 25 0 29 -61 7 -107 -17 -37 -19 -38 -73 -38 -75 0 -98 23 -96 96 0
29 3 60 6 69 13 41 107 53 146 20z m294 8 c27 -12 33 -33 13 -41 -8 -4 -7 -6
3 -6 25 -1 29 -65 7 -110 -17 -35 -19 -36 -74 -36 -73 0 -94 23 -94 102 0 44
5 58 25 78 27 28 76 33 120 13z m299 2 c27 -10 35 -35 14 -43 -8 -3 -6 -6 5
-6 12 -1 17 -10 18 -33 3 -87 -16 -113 -85 -114 -73 -2 -91 19 -91 102 0 57 3
68 24 85 25 21 75 25 115 9z m310 -3 c11 -8 17 -20 14 -28 -3 -8 1 -20 9 -27
18 -18 16 -61 -5 -101 -15 -30 -22 -34 -64 -37 -78 -6 -119 47 -103 132 9 51
37 74 88 74 24 0 51 -6 61 -13z m2421 -1 c22 -15 37 -109 24 -144 -14 -37 -31
-47 -83 -48 -61 -1 -85 18 -93 74 -11 85 21 132 90 132 24 0 52 -6 62 -14z
m295 4 c26 -14 43 -73 36 -125 -9 -54 -19 -63 -83 -69 -43 -4 -54 -1 -71 17
-11 12 -23 36 -27 54 -8 40 10 109 33 122 22 13 88 14 112 1z m311 -10 c21
-17 22 -21 9 -30 -13 -8 -13 -10 1 -10 25 0 29 -64 7 -109 -17 -35 -19 -36
-73 -36 -88 0 -114 45 -90 156 11 50 101 67 146 29z m294 8 c27 -12 33 -33 13
-41 -8 -4 -7 -6 3 -6 25 -1 29 -65 7 -110 -17 -35 -19 -36 -74 -36 -73 0 -94
23 -94 102 0 44 5 58 25 78 27 28 76 33 120 13z m-1470 -18 c3 -5 1 -10 -4
-10 -6 0 -11 5 -11 10 0 6 2 10 4 10 3 0 8 -4 11 -10z m-2750 -316 c14 -11 16
-18 8 -21 -17 -6 -16 -23 1 -23 22 0 24 -64 4 -107 l-18 -38 -62 5 c-59 5 -64
7 -79 37 -20 41 -11 130 16 149 26 19 105 17 130 -2z m300 2 c16 -12 17 -16 6
-30 -11 -13 -11 -16 2 -16 23 0 27 -66 5 -109 -17 -35 -20 -36 -70 -36 -44 0
-57 4 -76 25 -20 22 -23 33 -20 89 3 48 9 67 23 77 24 18 106 18 130 0z m296
3 c13 -7 18 -16 14 -26 -3 -9 -1 -19 5 -23 19 -12 14 -96 -6 -122 -15 -18 -29
-23 -69 -23 -44 0 -53 4 -72 29 -35 46 -29 142 11 168 17 11 95 9 117 -3z
m313 -8 c13 -15 14 -20 4 -24 -10 -3 -8 -9 6 -19 15 -12 18 -23 13 -57 -3 -24
-12 -50 -21 -60 -9 -10 -14 -20 -12 -22 3 -2 -22 -2 -54 -1 -78 5 -95 23 -95
104 1 51 4 63 24 79 32 26 112 26 135 0z m298 2 c19 -17 25 -39 8 -28 -5 3
-10 1 -10 -4 0 -6 6 -11 14 -11 22 0 24 -64 4 -107 l-18 -38 -59 3 c-39 3 -64
9 -74 20 -34 37 -26 150 11 171 28 17 103 13 124 -6z m301 4 c10 -7 21 -34 26
-65 7 -43 5 -60 -10 -90 -18 -37 -19 -37 -76 -36 -79 2 -97 24 -91 113 3 47 9
67 23 77 24 17 105 18 128 1z m302 -1 c28 -21 36 -108 14 -154 -18 -36 -21
-37 -71 -37 -47 0 -56 3 -75 29 -35 46 -29 142 11 168 19 13 101 9 121 -6z
m296 3 c13 -7 18 -16 14 -26 -3 -9 -1 -19 5 -23 6 -4 11 -28 12 -54 1 -63 -19
-84 -86 -88 -44 -3 -54 0 -71 22 -28 34 -28 129 -1 159 21 24 92 29 127 10z
m313 -8 c13 -15 14 -20 4 -24 -10 -4 -9 -9 5 -17 21 -14 22 -57 2 -107 l-15
-38 -59 3 c-39 3 -64 9 -74 20 -34 37 -26 150 11 171 30 18 107 13 126 -8z
m301 -1 c10 -11 13 -20 7 -20 -7 0 -12 -4 -12 -10 0 -5 6 -10 14 -10 22 0 25
-67 4 -109 -17 -35 -18 -36 -75 -35 -49 2 -61 6 -75 25 -19 27 -21 36 -19 97
1 59 27 82 89 82 36 0 54 -5 67 -20z m301 4 c13 -11 15 -17 7 -20 -17 -7 -16
-24 1 -24 22 0 25 -67 4 -109 -17 -35 -20 -36 -70 -36 -67 0 -89 18 -95 79 -6
53 1 89 23 110 21 21 104 21 130 0z m304 -4 c30 -30 31 -129 1 -165 -12 -15
-28 -20 -66 -20 -44 0 -53 4 -73 30 -20 25 -23 39 -19 82 5 71 26 93 89 93 35
0 54 -6 68 -20z m303 2 c26 -28 32 -96 13 -145 l-16 -42 -57 0 c-46 0 -61 4
-75 20 -35 44 -29 152 10 175 29 17 107 12 125 -8z m300 4 c18 -14 25 -42 7
-31 -5 3 -10 1 -10 -4 0 -6 6 -11 14 -11 22 0 24 -64 4 -107 -18 -38 -18 -38
-75 -37 -48 2 -61 6 -75 25 -19 27 -21 36 -19 97 1 59 27 82 89 82 26 0 55 -7
65 -14z m302 0 c16 -12 17 -16 6 -30 -11 -13 -11 -16 2 -16 23 0 27 -66 5
-109 -17 -35 -20 -36 -70 -36 -44 0 -57 4 -75 25 -36 40 -29 146 11 172 19 13
101 9 121 -6z m-4226 -331 c13 -13 14 -17 3 -24 -11 -7 -11 -9 2 -14 22 -9 21
-78 -3 -122 -10 -19 -21 -31 -25 -28 -4 4 -25 6 -47 4 -61 -4 -89 26 -89 96 0
62 12 90 43 103 30 13 96 5 116 -15z m300 0 c14 -14 14 -17 1 -25 -13 -8 -13
-10 2 -10 12 0 18 -10 20 -37 3 -42 -9 -93 -23 -93 -5 0 -9 -8 -9 -17 0 -12
-3 -14 -10 -7 -6 6 -29 8 -53 5 -37 -5 -45 -3 -64 20 -18 20 -23 39 -23 79 0
59 12 87 43 100 30 13 96 5 116 -15z m281 12 c14 -7 25 -19 26 -27 0 -8 3 -22
7 -30 16 -44 15 -68 -5 -109 -12 -25 -23 -40 -25 -35 -2 6 -23 8 -51 4 -43 -5
-49 -3 -69 24 -25 33 -31 98 -12 140 20 42 80 58 129 33z m298 2 c29 -10 52
-39 31 -39 -6 0 -3 -8 6 -17 21 -20 14 -96 -10 -123 -8 -9 -14 -19 -13 -21 2
-2 0 -2 -4 1 -5 3 -29 3 -55 0 -41 -4 -51 -2 -65 16 -24 29 -33 95 -19 137 17
51 65 69 129 46z m306 0 c27 -13 46 -55 46 -103 -1 -36 -33 -110 -43 -99 -4 4
-27 6 -50 5 -80 -4 -107 46 -83 155 10 46 75 67 130 42z m324 -13 c24 -23 29
-137 8 -159 -9 -8 -16 -19 -16 -24 0 -4 -24 -8 -52 -8 -71 0 -98 29 -98 105 0
59 12 87 43 100 30 13 96 5 115 -14z m300 0 c8 -8 18 -36 23 -63 6 -38 3 -56
-11 -88 -19 -39 -20 -40 -72 -40 -47 0 -56 3 -75 29 -39 51 -27 156 19 176 31
13 97 5 116 -14z m306 -5 c15 -16 17 -21 6 -21 -12 0 -12 -2 -2 -9 20 -12 19
-107 -1 -129 -10 -10 -16 -21 -15 -23 2 -2 0 -2 -4 1 -5 3 -29 3 -55 0 -41 -4
-51 -2 -65 16 -40 49 -31 159 15 182 32 17 96 7 121 -17z m280 18 c27 -13 43
-39 23 -39 -7 0 -4 -5 6 -11 11 -7 17 -22 17 -47 -1 -40 -34 -120 -43 -105 -3
5 -28 7 -56 3 -27 -3 -48 -3 -45 1 2 4 -2 12 -11 16 -32 18 -40 128 -12 161
25 31 79 40 121 21z m325 -14 c13 -13 14 -17 3 -24 -11 -7 -11 -9 2 -14 23 -9
21 -78 -3 -123 -11 -19 -22 -31 -25 -26 -3 5 -24 6 -48 3 -38 -5 -46 -3 -65
20 -18 20 -23 39 -23 79 0 59 12 87 43 100 30 13 96 5 116 -15z m300 0 c14
-14 14 -17 1 -25 -13 -8 -13 -10 1 -10 12 0 18 -11 21 -37 5 -41 -8 -93 -23
-93 -5 0 -9 -8 -10 -17 0 -10 -3 -13 -5 -8 -3 7 -23 9 -52 5 -43 -5 -49 -3
-69 24 -39 51 -27 156 19 176 31 13 97 5 117 -15z m279 14 c36 -12 42 -26 44
-103 2 -72 -15 -91 -79 -95 -26 -1 -49 -4 -52 -6 -9 -10 -43 49 -48 84 -13 99
45 151 135 120z m307 -1 c45 -21 59 -135 20 -178 -8 -9 -12 -21 -8 -26 4 -5 2
-4 -5 2 -7 6 -32 8 -62 4 l-50 -6 -20 41 c-23 47 -24 65 -10 117 15 51 77 73
135 46z m324 -13 c13 -13 14 -17 3 -24 -11 -7 -11 -9 2 -14 22 -9 21 -78 -3
-122 -10 -19 -21 -31 -25 -28 -4 4 -25 6 -47 4 -61 -4 -89 26 -89 96 0 62 12
90 43 103 30 13 96 5 116 -15z m300 0 c14 -14 14 -17 1 -25 -13 -8 -13 -10 2
-10 12 0 18 -10 20 -37 3 -42 -9 -93 -23 -93 -5 0 -9 -8 -9 -17 0 -12 -3 -14
-10 -7 -6 6 -29 8 -53 5 -37 -5 -45 -3 -64 20 -40 47 -27 159 19 179 31 13 97
5 117 -15z m-4238 -325 c21 -17 22 -21 9 -30 -13 -8 -13 -10 1 -10 25 0 29
-61 7 -107 -18 -37 -19 -38 -73 -38 -59 1 -92 21 -95 60 -6 60 1 106 20 125
27 27 99 27 131 0z m294 8 c27 -12 33 -33 13 -41 -8 -4 -7 -6 3 -6 25 -1 29
-65 7 -110 -17 -35 -19 -36 -74 -36 -73 1 -94 23 -94 102 0 44 5 58 25 78 27
28 76 33 120 13z m306 2 c22 -12 25 -36 7 -43 -8 -3 -6 -6 5 -6 12 -1 17 -10
18 -33 3 -88 -16 -113 -86 -113 -73 -1 -90 18 -90 101 0 57 3 68 24 85 26 21
90 26 122 9z m303 -3 c11 -8 17 -20 14 -28 -3 -8 1 -20 9 -27 18 -18 16 -60
-5 -101 -16 -32 -20 -34 -72 -36 -44 -2 -57 2 -72 19 -36 44 -35 129 3 167 23
23 95 26 123 6z m307 -8 c17 -14 20 -22 11 -26 -10 -4 -10 -8 2 -17 22 -16 23
-64 3 -106 -16 -34 -19 -35 -72 -35 -82 0 -103 30 -97 138 1 15 11 36 22 47
28 28 99 27 131 -1z m294 9 c27 -12 33 -33 13 -41 -8 -4 -7 -6 3 -6 25 -1 29
-65 7 -110 -17 -35 -19 -36 -74 -36 -47 1 -60 5 -75 24 -34 42 -20 164 20 174
32 9 81 7 106 -5z m299 0 c30 -13 36 -28 37 -96 2 -73 -20 -97 -89 -97 -45 0
-57 4 -74 25 -29 36 -22 135 11 161 26 21 78 25 115 7z m317 -9 c17 -17 19
-23 8 -30 -9 -5 -9 -9 -3 -9 15 0 24 -68 12 -98 -13 -37 -30 -47 -83 -49 -42
-1 -53 3 -68 23 -36 48 -34 127 3 164 28 28 103 27 131 -1z m297 5 c17 -12 20
-19 12 -29 -8 -9 -6 -14 5 -19 20 -7 20 -68 0 -110 -14 -30 -18 -32 -70 -31
-82 0 -103 30 -97 138 3 42 35 67 85 67 23 0 53 -7 65 -16z m303 -4 c21 -17
22 -21 9 -30 -13 -8 -13 -10 1 -10 25 0 29 -64 7 -109 -17 -35 -19 -36 -73
-36 -74 1 -98 24 -97 91 2 58 18 101 40 107 43 12 91 6 113 -13z m294 8 c27
-12 33 -33 13 -41 -8 -3 -6 -6 5 -6 28 -1 27 -91 -2 -126 -25 -31 -116 -29
-142 4 -30 36 -27 124 6 156 27 28 76 33 120 13z m310 -2 c22 -15 37 -109 24
-144 -14 -38 -31 -47 -84 -47 -73 -1 -90 18 -90 101 0 57 3 68 24 85 28 23 98
26 126 5z m306 -5 c21 -17 24 -28 24 -85 0 -82 -14 -98 -86 -101 -60 -3 -83
15 -94 72 -8 42 10 109 33 122 29 17 98 13 123 -8z m300 -1 c21 -17 22 -21 9
-30 -13 -8 -13 -10 1 -10 25 0 29 -64 7 -109 -17 -35 -19 -36 -73 -36 -71 1
-98 24 -97 85 1 61 11 99 30 110 30 17 98 12 123 -10z m294 8 c27 -12 33 -33
13 -41 -8 -4 -7 -6 3 -6 25 -1 29 -65 7 -110 -17 -35 -19 -36 -74 -36 -73 1
-94 23 -94 102 0 44 5 58 25 78 27 28 76 33 120 13z m-4222 -332 c20 -15 22
-32 5 -39 -8 -3 -6 -6 5 -6 22 -1 24 -69 2 -114 -14 -31 -17 -32 -72 -31 -75
2 -93 22 -93 105 0 77 20 99 88 99 26 0 55 -7 65 -14z m302 0 c16 -12 17 -16
6 -30 -11 -13 -11 -16 2 -16 23 0 27 -66 5 -109 -17 -35 -20 -36 -70 -36 -46
0 -56 4 -77 28 -20 24 -23 35 -19 89 3 44 10 64 23 74 24 18 106 18 130 0z
m296 3 c13 -7 18 -16 14 -26 -3 -9 -1 -19 5 -23 19 -12 14 -96 -6 -122 -15
-18 -29 -23 -69 -23 -44 0 -53 4 -72 29 -35 46 -29 142 11 168 17 11 95 9 117
-3z m307 -5 c17 -12 20 -19 12 -29 -8 -9 -6 -14 6 -19 13 -5 16 -16 11 -52 -2
-24 -12 -53 -21 -63 -9 -10 -14 -20 -12 -22 3 -2 -21 -4 -52 -4 -65 0 -89 19
-99 78 -7 45 13 114 35 120 39 10 99 6 120 -9z m307 -4 c25 -28 31 -109 11
-151 -15 -33 -18 -34 -72 -33 -65 2 -90 20 -98 74 -7 45 10 106 32 119 31 19
107 13 127 -9z m298 6 c10 -8 21 -35 26 -65 7 -42 5 -59 -10 -89 -18 -36 -20
-37 -71 -37 -75 0 -98 25 -98 106 0 77 20 99 88 99 26 0 55 -7 65 -14z m302 0
c28 -21 36 -108 14 -154 -18 -36 -21 -37 -71 -37 -47 0 -56 3 -75 29 -35 46
-29 142 11 168 19 13 101 9 121 -6z m304 -3 c29 -24 34 -132 8 -161 -9 -10
-15 -21 -13 -23 3 -2 -21 -4 -52 -4 -45 0 -60 4 -74 21 -34 41 -35 136 -1 169
21 21 105 20 132 -2z m305 -2 c13 -14 14 -21 5 -26 -8 -6 -7 -10 5 -17 21 -12
20 -63 -2 -108 -16 -34 -19 -35 -72 -35 -43 0 -59 4 -72 20 -34 43 -28 152 10
174 30 18 107 13 126 -8z m300 4 c16 -12 17 -17 6 -30 -10 -12 -10 -15 3 -15
23 0 26 -62 5 -107 -17 -37 -19 -38 -70 -38 -75 0 -98 25 -98 106 0 77 20 99
88 99 26 0 56 -7 66 -15z m297 5 c22 -12 25 -36 7 -43 -8 -4 -7 -6 3 -6 25 -1
29 -65 7 -110 -17 -35 -20 -36 -70 -36 -47 0 -56 3 -75 29 -35 46 -29 142 11
168 16 11 95 10 117 -2z m309 -10 c30 -30 31 -128 2 -164 -25 -30 -110 -30
-135 1 -34 42 -34 134 -1 168 24 23 109 20 134 -5z m306 -1 c25 -28 27 -129 1
-156 -9 -11 -15 -22 -13 -24 3 -2 -21 -4 -52 -4 -45 0 -60 4 -74 21 -36 45
-30 150 10 174 32 18 107 12 128 -11z m297 7 c18 -14 25 -42 7 -31 -5 3 -10 1
-10 -4 0 -6 7 -11 15 -11 20 0 20 -71 0 -113 -14 -31 -17 -32 -72 -31 -75 2
-93 22 -93 105 0 77 20 99 88 99 26 0 55 -7 65 -14z m301 -1 c16 -12 17 -17 6
-30 -10 -12 -10 -15 3 -15 23 0 27 -66 5 -109 -17 -35 -20 -36 -70 -36 -45 0
-56 4 -75 26 -36 42 -29 145 11 171 19 13 100 8 120 -7z"/>
<path d="M1150 4040 c0 -5 5 -10 11 -10 5 0 7 5 4 10 -3 6 -8 10 -11 10 -2 0
-4 -4 -4 -10z"/>
<path d="M2365 4040 c-3 -5 -1 -10 4 -10 6 0 11 5 11 10 0 6 -2 10 -4 10 -3 0
-8 -4 -11 -10z"/>
<path d="M2490 4040 c0 -5 5 -10 11 -10 5 0 7 5 4 10 -3 6 -8 10 -11 10 -2 0
-4 -4 -4 -10z"/>
<path d="M3570 4040 c0 -5 5 -10 11 -10 5 0 7 5 4 10 -3 6 -8 10 -11 10 -2 0
-4 -4 -4 -10z"/>
<path d="M3875 4040 c-3 -5 -1 -10 4 -10 6 0 11 5 11 10 0 6 -2 10 -4 10 -3 0
-8 -4 -11 -10z"/>
<path d="M4840 3370 c0 -5 5 -10 11 -10 5 0 7 5 4 10 -3 6 -8 10 -11 10 -2 0
-4 -4 -4 -10z"/>
<path d="M2322 3171 c4 -13 18 -16 19 -4 0 4 -5 9 -11 12 -7 2 -11 -2 -8 -8z"/>
<path d="M2510 3171 c0 -6 5 -13 10 -16 6 -3 10 1 10 9 0 9 -4 16 -10 16 -5 0
-10 -4 -10 -9z"/>
<path d="M2435 3130 c3 -5 8 -10 11 -10 2 0 4 5 4 10 0 6 -5 10 -11 10 -5 0
-7 -4 -4 -10z"/>
<path d="M2627 3174 c-8 -8 1 -24 14 -24 5 0 9 7 9 15 0 15 -12 20 -23 9z"/>
<path d="M2820 3165 c0 -8 5 -15 10 -15 6 0 10 7 10 15 0 8 -4 15 -10 15 -5 0
-10 -7 -10 -15z"/>
<path d="M2936 3171 c-4 -5 -2 -12 3 -15 5 -4 12 -2 15 3 4 5 2 12 -3 15 -5 4
-12 2 -15 -3z"/>
<path d="M3125 3171 c-6 -11 9 -23 19 -14 9 9 7 23 -3 23 -6 0 -12 -4 -16 -9z"/>
<path d="M3240 3165 c0 -9 5 -15 11 -13 6 2 11 8 11 13 0 5 -5 11 -11 13 -6 2
-11 -4 -11 -13z"/>
<path d="M3430 3165 c0 -8 5 -15 10 -15 6 0 10 7 10 15 0 8 -4 15 -10 15 -5 0
-10 -7 -10 -15z"/>
<path d="M3547 3174 c-8 -8 1 -24 14 -24 5 0 9 7 9 15 0 15 -12 20 -23 9z"/>
<path d="M3737 3174 c-8 -8 1 -24 14 -24 5 0 9 7 9 15 0 15 -12 20 -23 9z"/>
<path d="M1150 3060 c0 -5 5 -10 11 -10 5 0 7 5 4 10 -3 6 -8 10 -11 10 -2 0
-4 -4 -4 -10z"/>
<path d="M4305 3060 c3 -5 8 -10 11 -10 2 0 4 5 4 10 0 6 -5 10 -11 10 -5 0
-7 -4 -4 -10z"/>
<path d="M4780 3059 c0 -5 5 -7 10 -4 6 3 10 8 10 11 0 2 -4 4 -10 4 -5 0 -10
-5 -10 -11z"/>
<path d="M5080 3060 c0 -5 5 -10 10 -10 6 0 10 5 10 10 0 6 -4 10 -10 10 -5 0
-10 -4 -10 -10z"/>
<path d="M2515 2791 c-3 -5 -1 -12 5 -16 5 -3 10 1 10 9 0 18 -6 21 -15 7z"/>
<path d="M2320 2780 c0 -5 4 -10 9 -10 6 0 13 5 16 10 3 6 -1 10 -9 10 -9 0
-16 -4 -16 -10z"/>
<path d="M2435 2750 c3 -5 8 -10 11 -10 2 0 4 5 4 10 0 6 -5 10 -11 10 -5 0
-7 -4 -4 -10z"/>
<path d="M2625 2780 c3 -5 10 -10 16 -10 5 0 9 5 9 10 0 6 -7 10 -16 10 -8 0
-12 -4 -9 -10z"/>
<path d="M2820 2780 c0 -5 5 -10 10 -10 6 0 10 5 10 10 0 6 -4 10 -10 10 -5 0
-10 -4 -10 -10z"/>
<path d="M2740 2750 c0 -5 5 -10 11 -10 5 0 7 5 4 10 -3 6 -8 10 -11 10 -2 0
-4 -4 -4 -10z"/>
<path d="M3131 2791 c-8 -6 -9 -11 -3 -15 6 -3 14 -1 17 5 9 14 2 20 -14 10z"/>
<path d="M2935 2780 c3 -5 10 -10 16 -10 5 0 9 5 9 10 0 6 -7 10 -16 10 -8 0
-12 -4 -9 -10z"/>
<path d="M3436 2791 c-4 -7 -5 -15 -2 -18 9 -9 19 4 14 18 -4 11 -6 11 -12 0z"/>
<path d="M3240 2780 c0 -5 4 -10 9 -10 6 0 13 5 16 10 3 6 -1 10 -9 10 -9 0
-16 -4 -16 -10z"/>
<path d="M3350 2750 c0 -5 5 -10 11 -10 5 0 7 5 4 10 -3 6 -8 10 -11 10 -2 0
-4 -4 -4 -10z"/>
<path d="M3741 2791 c-10 -6 -10 -10 -1 -16 13 -8 24 -1 19 14 -3 6 -10 7 -18
2z"/>
<path d="M3545 2780 c3 -5 10 -10 16 -10 5 0 9 5 9 10 0 6 -7 10 -16 10 -8 0
-12 -4 -9 -10z"/>
<path d="M4238 2713 c7 -3 16 -2 19 1 4 3 -2 6 -13 5 -11 0 -14 -3 -6 -6z"/>
<path d="M5148 2713 c7 -3 16 -2 19 1 4 3 -2 6 -13 5 -11 0 -14 -3 -6 -6z"/>
<path d="M2516 2411 c-4 -7 -5 -15 -2 -18 9 -9 19 4 14 18 -4 11 -6 11 -12 0z"/>
<path d="M2320 2400 c0 -5 7 -10 15 -10 8 0 15 5 15 10 0 6 -7 10 -15 10 -8 0
-15 -4 -15 -10z"/>
<path d="M2625 2400 c3 -5 10 -10 16 -10 5 0 9 5 9 10 0 6 -7 10 -16 10 -8 0
-12 -4 -9 -10z"/>
<path d="M2435 2370 c3 -5 8 -10 11 -10 2 0 4 5 4 10 0 6 -5 10 -11 10 -5 0
-7 -4 -4 -10z"/>
<path d="M2740 2370 c0 -5 5 -10 11 -10 5 0 7 5 4 10 -3 6 -8 10 -11 10 -2 0
-4 -4 -4 -10z"/>
<path d="M3131 2411 c-10 -6 -10 -10 -1 -16 13 -8 24 -1 19 14 -3 6 -10 7 -18
2z"/>
<path d="M2930 2400 c0 -5 7 -10 15 -10 8 0 15 5 15 10 0 6 -7 10 -15 10 -8 0
-15 -4 -15 -10z"/>
<path d="M3436 2411 c-4 -7 -5 -15 -2 -18 9 -9 19 4 14 18 -4 11 -6 11 -12 0z"/>
<path d="M3240 2400 c0 -5 4 -10 9 -10 6 0 13 5 16 10 3 6 -1 10 -9 10 -9 0
-16 -4 -16 -10z"/>
<path d="M3350 2370 c0 -5 5 -10 11 -10 5 0 7 5 4 10 -3 6 -8 10 -11 10 -2 0
-4 -4 -4 -10z"/>
<path d="M3545 2400 c3 -5 10 -10 16 -10 5 0 9 5 9 10 0 6 -7 10 -16 10 -8 0
-12 -4 -9 -10z"/>
<path d="M3735 2400 c3 -5 10 -10 16 -10 5 0 9 5 9 10 0 6 -7 10 -16 10 -8 0
-12 -4 -9 -10z"/>
<path d="M4305 2080 c3 -5 8 -10 11 -10 2 0 4 5 4 10 0 6 -5 10 -11 10 -5 0
-7 -4 -4 -10z"/>
<path d="M2516 2031 c-4 -7 -5 -15 -2 -18 9 -9 19 4 14 18 -4 11 -6 11 -12 0z"/>
<path d="M2320 2020 c0 -5 4 -10 9 -10 6 0 13 5 16 10 3 6 -1 10 -9 10 -9 0
-16 -4 -16 -10z"/>
<path d="M2430 1990 c0 -5 5 -10 10 -10 6 0 10 5 10 10 0 6 -4 10 -10 10 -5 0
-10 -4 -10 -10z"/>
<path d="M2625 2020 c3 -5 10 -10 16 -10 5 0 9 5 9 10 0 6 -7 10 -16 10 -8 0
-12 -4 -9 -10z"/>
<path d="M2820 2020 c0 -5 5 -10 10 -10 6 0 10 5 10 10 0 6 -4 10 -10 10 -5 0
-10 -4 -10 -10z"/>
<path d="M2710 1989 c0 -5 5 -7 10 -4 6 3 10 8 10 11 0 2 -4 4 -10 4 -5 0 -10
-5 -10 -11z"/>
<path d="M2740 1990 c0 -5 5 -10 11 -10 5 0 7 5 4 10 -3 6 -8 10 -11 10 -2 0
-4 -4 -4 -10z"/>
<path d="M2930 2020 c0 -5 7 -10 15 -10 8 0 15 5 15 10 0 6 -7 10 -15 10 -8 0
-15 -4 -15 -10z"/>
<path d="M3125 2020 c3 -5 10 -10 16 -10 5 0 9 5 9 10 0 6 -7 10 -16 10 -8 0
-12 -4 -9 -10z"/>
<path d="M3045 1990 c-3 -5 -1 -10 4 -10 6 0 11 5 11 10 0 6 -2 10 -4 10 -3 0
-8 -4 -11 -10z"/>
<path d="M3436 2031 c-4 -7 -5 -15 -2 -18 9 -9 19 4 14 18 -4 11 -6 11 -12 0z"/>
<path d="M3240 2020 c0 -5 5 -10 10 -10 6 0 10 5 10 10 0 6 -4 10 -10 10 -5 0
-10 -4 -10 -10z"/>
<path d="M3320 1990 c0 -5 5 -10 10 -10 6 0 10 5 10 10 0 6 -4 10 -10 10 -5 0
-10 -4 -10 -10z"/>
<path d="M3350 1990 c0 -5 5 -10 11 -10 5 0 7 5 4 10 -3 6 -8 10 -11 10 -2 0
-4 -4 -4 -10z"/>
<path d="M3545 2020 c3 -5 10 -10 16 -10 5 0 9 5 9 10 0 6 -7 10 -16 10 -8 0
-12 -4 -9 -10z"/>
<path d="M3735 2020 c3 -5 10 -10 16 -10 5 0 9 5 9 10 0 6 -7 10 -16 10 -8 0
-12 -4 -9 -10z"/>
<path d="M1518 1733 c7 -3 16 -2 19 1 4 3 -2 6 -13 5 -11 0 -14 -3 -6 -6z"/>
<path d="M1818 1733 c7 -3 16 -2 19 1 4 3 -2 6 -13 5 -11 0 -14 -3 -6 -6z"/>
<path d="M4238 1733 c7 -3 16 -2 19 1 4 3 -2 6 -13 5 -11 0 -14 -3 -6 -6z"/>
<path d="M5148 1733 c7 -3 16 -2 19 1 4 3 -2 6 -13 5 -11 0 -14 -3 -6 -6z"/>
<path d="M1150 1430 c0 -5 5 -10 11 -10 5 0 7 5 4 10 -3 6 -8 10 -11 10 -2 0
-4 -4 -4 -10z"/>
<path d="M2060 1430 c0 -5 5 -10 11 -10 5 0 7 5 4 10 -3 6 -8 10 -11 10 -2 0
-4 -4 -4 -10z"/>
<path d="M2490 1430 c0 -5 5 -10 11 -10 5 0 7 5 4 10 -3 6 -8 10 -11 10 -2 0
-4 -4 -4 -10z"/>
<path d="M3570 1430 c0 -5 5 -10 11 -10 5 0 7 5 4 10 -3 6 -8 10 -11 10 -2 0
-4 -4 -4 -10z"/>
<path d="M3875 1430 c-3 -5 -1 -10 4 -10 6 0 11 5 11 10 0 6 -2 10 -4 10 -3 0
-8 -4 -11 -10z"/>
<path d="M1150 450 c0 -5 5 -10 11 -10 5 0 7 5 4 10 -3 6 -8 10 -11 10 -2 0
-4 -4 -4 -10z"/>
</g>
</svg>
